<?xml version="1.0" encoding="UTF-8" standalone="no"?>
<svg
   width="300"
   height="300"
   viewBox="0 0 79.375043 79.374997"
   version="1.1"
   id="svg1588"
   inkscape:version="1.3 (0e150ed6c4, 2023-07-21)"
   sodipodi:docname="logo.svg"
   xml:space="preserve"
   xmlns:inkscape="http://www.inkscape.org/namespaces/inkscape"
   xmlns:sodipodi="http://sodipodi.sourceforge.net/DTD/sodipodi-0.dtd"
   xmlns="http://www.w3.org/2000/svg"
   xmlns:svg="http://www.w3.org/2000/svg"
   xmlns:rdf="http://www.w3.org/1999/02/22-rdf-syntax-ns#"
   xmlns:cc="http://creativecommons.org/ns#"
   xmlns:dc="http://purl.org/dc/elements/1.1/"><defs
     id="defs1582" /><sodipodi:namedview
     id="base"
     pagecolor="#000000"
     bordercolor="#666666"
     borderopacity="1.0"
     inkscape:pageopacity="0"
     inkscape:pageshadow="2"
     inkscape:zoom="1.979899"
     inkscape:cx="184.60538"
     inkscape:cy="143.6942"
     inkscape:document-units="px"
     inkscape:current-layer="layer1"
     showgrid="false"
     inkscape:window-width="1920"
     inkscape:window-height="1017"
     inkscape:window-x="-8"
     inkscape:window-y="-8"
     inkscape:window-maximized="1"
     inkscape:document-rotation="0"
     units="px"
     inkscape:pagecheckerboard="true"
     inkscape:showpageshadow="2"
     inkscape:deskcolor="#d1d1d1" /><metadata
     id="metadata1585"><rdf:RDF><cc:Work
         rdf:about=""><dc:format>image/svg+xml</dc:format><dc:type
           rdf:resource="http://purl.org/dc/dcmitype/StillImage" /></cc:Work></rdf:RDF></metadata><g
     inkscape:groupmode="layer"
     id="layer3"
     inkscape:label="Layer 3"
     transform="matrix(0.79544779,0,0,0.79544779,7.6045106,18.88672)"
     sodipodi:insensitive="true"><rect
       style="fill:#ffffff;stroke:#d91842;stroke-width:1.63585;stroke-dasharray:none;stroke-opacity:1"
       id="rect1"
       width="98.150742"
       height="98.150742"
       x="-8.742115"
       y="-22.925585" /></g><g
     inkscape:groupmode="layer"
     id="layer2"
     inkscape:label="Layer 2"
     style="display:inline"
     sodipodi:insensitive="true"><rect
       style="fill:#d91842;fill-opacity:1;stroke:#d91842;stroke-width:0;stroke-dasharray:none;stroke-opacity:1"
       id="rect2"
       width="77.775452"
       height="27.52877"
       x="0.66817397"
       y="51.315765" /></g><g
     style="display:inline"
     inkscape:label="Layer 1"
     inkscape:groupmode="layer"
     id="layer1"
     transform="translate(0,-212)"><g
       id="text2"
       style="font-size:9.70877px;line-height:0.9;font-family:Arial;-inkscape-font-specification:Arial;fill:#ffffff;stroke:#d91842;stroke-width:0"
       aria-label="HTML5/CSS3&#10;UI/UX Design"><path
         style="font-weight:bold;font-family:'Courier New';-inkscape-font-specification:'Courier New Bold'"
         d="M 9.3226822,273.24973 H 7.2462949 v 1.40796 h 0.1516996 q 0.3508051,0 0.497764,0.13748 0.1516996,0.13274 0.1516996,0.3508 0,0.21333 -0.1516996,0.35081 -0.1469589,0.13274 -0.497764,0.13274 H 6.2081013 q -0.3508052,0 -0.5025047,-0.13274 -0.1469589,-0.13748 -0.1469589,-0.35555 0,-0.26547 0.2322899,-0.41243 0.1137746,-0.0759 0.4835422,-0.0711 v -3.80197 q -0.2559929,-0.0237 -0.38873,-0.15644 -0.1279965,-0.13274 -0.1279965,-0.33184 0,-0.21807 0.1469589,-0.35081 0.1516995,-0.13747 0.5025047,-0.13747 l 0.9907876,0.005 q 0.3508051,0 0.497764,0.13273 0.1516996,0.13274 0.1516996,0.35081 0,0.21807 -0.1516996,0.35554 -0.1469589,0.13274 -0.497764,0.13274 H 7.2462949 v 1.42219 h 2.0763873 v -1.42219 H 9.1709827 q -0.3508052,0 -0.5025047,-0.13274 -0.1469589,-0.13747 -0.1469589,-0.35554 0,-0.21807 0.1469589,-0.35081 0.1516995,-0.13747 0.5025047,-0.13747 l 0.9907873,0.005 q 0.350805,0 0.497764,0.13273 0.1517,0.13274 0.1517,0.35081 0,0.1991 -0.132737,0.33184 -0.127997,0.13274 -0.38399,0.15644 v 3.80197 q 0.374509,0 0.483543,0.0711 0.232289,0.14696 0.232289,0.41717 0,0.21333 -0.151699,0.35081 -0.146959,0.13274 -0.497764,0.13274 H 9.1709827 q -0.3508052,0 -0.5025047,-0.13274 -0.1469589,-0.13748 -0.1469589,-0.35555 0,-0.21332 0.1516995,-0.34606 0.1516995,-0.13748 0.4977641,-0.13748 h 0.1516995 z m 5.2336338,-2.39401 v 3.80197 h 0.654204 q 0.350805,0 0.497764,0.13748 0.1517,0.13274 0.1517,0.3508 0,0.21333 -0.1517,0.35081 -0.146959,0.13274 -0.497764,0.13274 h -2.275493 q -0.350805,0 -0.502504,-0.13274 -0.146959,-0.13748 -0.146959,-0.35555 0,-0.21332 0.146959,-0.34606 0.151699,-0.13748 0.502504,-0.13748 h 0.649464 v -3.80197 h -1.052416 v 0.91968 q 0,0.35081 -0.137477,0.50251 -0.132737,0.14695 -0.350805,0.14695 -0.213328,0 -0.350806,-0.14695 -0.132737,-0.1517 -0.132737,-0.50251 v -1.89624 l 5.034528,0.005 v 1.8915 q 0,0.35081 -0.137477,0.50251 -0.132737,0.14695 -0.350805,0.14695 -0.213328,0 -0.350806,-0.14695 -0.132737,-0.1517 -0.132737,-0.50251 v -0.91968 z m 3.835154,0.90546 v 2.89651 h 0.350805 q 0.350805,0 0.497764,0.13748 0.151699,0.13274 0.151699,0.3508 0,0.21333 -0.151699,0.35081 -0.146959,0.13274 -0.497764,0.13274 h -1.275224 q -0.350805,0 -0.497764,-0.13274 -0.1517,-0.13748 -0.1517,-0.35555 0,-0.21332 0.146959,-0.34606 0.146959,-0.13748 0.455099,-0.13748 v -3.80197 q -0.255993,-0.0237 -0.38873,-0.15644 -0.127997,-0.13274 -0.127997,-0.33184 0,-0.21807 0.146959,-0.35081 0.151699,-0.13747 0.502505,-0.13747 l 1.066637,0.005 1.32263,2.92495 1.298927,-2.92969 1.076119,0.005 q 0.350805,0 0.497764,0.13273 0.1517,0.13274 0.1517,0.35081 0,0.1991 -0.132738,0.33184 -0.132737,0.13274 -0.383989,0.15644 v 3.80197 q 0.30814,0 0.455099,0.13748 0.146959,0.13748 0.146959,0.3508 0,0.21333 -0.1517,0.35081 -0.146959,0.13274 -0.497764,0.13274 h -1.279965 q -0.346064,0 -0.497764,-0.13274 -0.146959,-0.13748 -0.146959,-0.35555 0,-0.21332 0.146959,-0.34606 0.1517,-0.13748 0.497764,-0.13748 h 0.355546 v -2.89651 l -1.114043,2.50304 h -0.843829 z m 6.940253,-0.90546 v 3.80197 h 2.09535 v -0.91968 q 0,-0.3508 0.132737,-0.49776 0.137478,-0.1517 0.355546,-0.1517 0.213327,0 0.346064,0.1517 0.137478,0.14696 0.137478,0.49776 v 1.89151 h -4.603133 q -0.350805,0 -0.502504,-0.13274 -0.146959,-0.13748 -0.146959,-0.35555 0,-0.21332 0.146959,-0.34606 0.151699,-0.13748 0.502504,-0.13748 h 0.564133 v -3.80197 h -0.564133 q -0.350805,0 -0.502504,-0.13274 -0.146959,-0.13747 -0.146959,-0.35554 0,-0.21807 0.146959,-0.35081 0.151699,-0.13747 0.502504,-0.13747 l 2.104831,0.005 q 0.350805,0 0.497764,0.13273 0.1517,0.13274 0.1517,0.35081 0,0.21807 -0.1517,0.35554 -0.146959,0.13274 -0.497764,0.13274 z m 5.413777,-0.38873 v 1.15671 q 0.54043,-0.17066 0.981306,-0.17066 0.895976,0 1.488552,0.61154 0.592576,0.61154 0.592576,1.57862 0,0.99553 -0.602057,1.5644 -0.597317,0.56413 -1.834616,0.56413 -1.090341,0 -1.725583,-0.41243 -0.369767,-0.23703 -0.369767,-0.54517 0,-0.19436 0.142218,-0.33658 0.146959,-0.14696 0.346065,-0.14696 0.165921,0 0.360286,0.16118 0.194365,0.15644 0.407693,0.21807 0.303399,0.0901 0.77746,0.0901 0.881753,0 1.204115,-0.2797 0.322361,-0.28443 0.322361,-0.86753 0,-0.57361 -0.31288,-0.90071 -0.30814,-0.32711 -0.796423,-0.32711 -0.526207,0 -1.199374,0.34133 -0.1517,0.0806 -0.265474,0.0806 -0.208587,0 -0.350805,-0.1517 -0.137478,-0.1517 -0.137478,-0.39347 v -2.80644 h 2.972363 q 0.350805,0 0.497764,0.13747 0.151699,0.13274 0.151699,0.35081 0,0.21333 -0.151699,0.3508 -0.146959,0.13274 -0.497764,0.13274 z m 8.646873,-0.85805 -3.114581,6.71271 q -0.118515,0.25125 -0.213327,0.3271 -0.123256,0.0995 -0.298659,0.0995 -0.199105,0 -0.346064,-0.14222 -0.142219,-0.14222 -0.142219,-0.32236 0,-0.128 0.113775,-0.37451 l 3.124062,-6.70796 q 0.118516,-0.25125 0.208587,-0.3271 0.127997,-0.0996 0.298659,-0.0996 0.199105,0 0.341323,0.14222 0.142219,0.13748 0.142219,0.31762 0,0.128 -0.113775,0.37451 z m 5.347409,0.52147 q 0.09007,-0.12326 0.194365,-0.18489 0.109034,-0.0616 0.232289,-0.0616 0.213328,0 0.346065,0.14696 0.137478,0.14695 0.137478,0.49776 v 0.82487 q 0,0.3508 -0.137478,0.5025 -0.132737,0.14696 -0.346065,0.14696 -0.194365,0 -0.31288,-0.10903 -0.118515,-0.10904 -0.175402,-0.4077 -0.03318,-0.1991 -0.132737,-0.30814 -0.194366,-0.21332 -0.545171,-0.34132 -0.346064,-0.128 -0.696869,-0.128 -0.436137,0 -0.801163,0.18963 -0.365027,0.18962 -0.644723,0.61628 -0.279696,0.42665 -0.279696,1.01449 v 0.6305 q 0,0.70161 0.507245,1.17093 0.511986,0.46932 1.417442,0.46932 0.54043,0 0.914938,-0.14696 0.218068,-0.0853 0.46458,-0.33658 0.151699,-0.1517 0.23703,-0.19437 0.08533,-0.0474 0.194365,-0.0474 0.194365,0 0.341324,0.14696 0.146959,0.14695 0.146959,0.34606 0,0.19911 -0.199105,0.42665 -0.289178,0.33185 -0.744276,0.52147 -0.611539,0.25599 -1.351074,0.25599 -0.862791,0 -1.55492,-0.35554 -0.559392,-0.28444 -0.952863,-0.89598 -0.393471,-0.61628 -0.393471,-1.34159 v -0.65894 q 0,-0.7585 0.350806,-1.41271 0.355545,-0.65894 0.981306,-1.01449 0.62576,-0.35554 1.327371,-0.35554 0.421914,0 0.786941,0.0996 0.369768,0.0948 0.687389,0.29392 z m 2.882291,5.25259 q -0.127997,0.1517 -0.208587,0.19437 -0.07585,0.0427 -0.189625,0.0427 -0.222808,0 -0.360286,-0.14696 -0.132737,-0.1517 -0.132737,-0.49777 v -0.6542 q 0,-0.35081 0.132737,-0.49777 0.137478,-0.1517 0.360286,-0.1517 0.170662,0 0.284437,0.0901 0.118515,0.0901 0.180143,0.3034 0.06163,0.20858 0.127997,0.28443 0.137477,0.14696 0.488282,0.29866 0.350806,0.1517 0.767979,0.1517 0.649464,0 1.066638,-0.3034 0.265474,-0.18488 0.265474,-0.4551 0,-0.18014 -0.127997,-0.33658 -0.127996,-0.16118 -0.417173,-0.26548 -0.189625,-0.0711 -0.84857,-0.19436 -0.796422,-0.14696 -1.204115,-0.35555 -0.407692,-0.20858 -0.644723,-0.58783 -0.23703,-0.37925 -0.23703,-0.82013 0,-0.69687 0.583095,-1.21833 0.583095,-0.52621 1.516995,-0.52621 0.374508,0 0.692129,0.0853 0.322362,0.0806 0.583095,0.25125 0.189625,-0.18488 0.379249,-0.18488 0.213328,0 0.346065,0.1517 0.137477,0.14696 0.137477,0.49302 v 0.73005 q 0,0.35081 -0.137477,0.50251 -0.132737,0.14696 -0.346065,0.14696 -0.180143,0 -0.31288,-0.10904 -0.104293,-0.0806 -0.15644,-0.32236 -0.05215,-0.24177 -0.132737,-0.34606 -0.137478,-0.18015 -0.412433,-0.3034 -0.274956,-0.12326 -0.635242,-0.12326 -0.526208,0 -0.834348,0.24651 -0.303399,0.24178 -0.303399,0.50725 0,0.18014 0.123256,0.35081 0.127997,0.16592 0.369768,0.26073 0.161181,0.0664 0.905456,0.21333 0.749017,0.14696 1.147228,0.32236 0.402952,0.1754 0.668426,0.54991 0.265474,0.37451 0.265474,0.89123 0,0.72058 -0.507245,1.15197 -0.673167,0.56887 -1.716101,0.56887 -0.402952,0 -0.786941,-0.0995 -0.379249,-0.0948 -0.739535,-0.28918 z m 5.82621,0 q -0.127997,0.1517 -0.208587,0.19437 -0.07585,0.0427 -0.189625,0.0427 -0.222808,0 -0.360286,-0.14696 -0.132737,-0.1517 -0.132737,-0.49777 v -0.6542 q 0,-0.35081 0.132737,-0.49777 0.137478,-0.1517 0.360286,-0.1517 0.170662,0 0.284437,0.0901 0.118515,0.0901 0.180143,0.3034 0.06163,0.20858 0.127997,0.28443 0.137477,0.14696 0.488282,0.29866 0.350806,0.1517 0.767979,0.1517 0.649464,0 1.066638,-0.3034 0.265474,-0.18488 0.265474,-0.4551 0,-0.18014 -0.127997,-0.33658 -0.127996,-0.16118 -0.417173,-0.26548 -0.189625,-0.0711 -0.84857,-0.19436 -0.796422,-0.14696 -1.204115,-0.35555 -0.407692,-0.20858 -0.644723,-0.58783 -0.23703,-0.37925 -0.23703,-0.82013 0,-0.69687 0.583095,-1.21833 0.583095,-0.52621 1.516995,-0.52621 0.374508,0 0.692129,0.0853 0.322362,0.0806 0.583095,0.25125 0.189625,-0.18488 0.379249,-0.18488 0.213328,0 0.346065,0.1517 0.137477,0.14696 0.137477,0.49302 v 0.73005 q 0,0.35081 -0.137477,0.50251 -0.132737,0.14696 -0.346065,0.14696 -0.180143,0 -0.31288,-0.10904 -0.104293,-0.0806 -0.15644,-0.32236 -0.05215,-0.24177 -0.132737,-0.34606 -0.137478,-0.18015 -0.412433,-0.3034 -0.274956,-0.12326 -0.635242,-0.12326 -0.526208,0 -0.834348,0.24651 -0.303399,0.24178 -0.303399,0.50725 0,0.18014 0.123256,0.35081 0.127997,0.16592 0.369768,0.26073 0.161181,0.0664 0.905456,0.21333 0.749017,0.14696 1.147228,0.32236 0.402952,0.1754 0.668426,0.54991 0.265474,0.37451 0.265474,0.89123 0,0.72058 -0.507245,1.15197 -0.673167,0.56887 -1.716101,0.56887 -0.402952,0 -0.786941,-0.0995 -0.379249,-0.0948 -0.739535,-0.28918 z m 8.632651,-3.0008 q 0.431395,0.29392 0.644723,0.68265 0.213327,0.38399 0.213327,0.86279 0,0.51672 -0.284436,0.9576 -0.279696,0.43614 -0.815385,0.66369 -0.535689,0.2228 -1.403221,0.2228 -1.128265,0 -1.697138,-0.3508 -0.317621,-0.19911 -0.317621,-0.47406 0,-0.20859 0.137477,-0.35081 0.142219,-0.14696 0.341324,-0.14696 0.137478,0 0.284437,0.0948 0.208587,0.14222 0.393471,0.18962 0.284436,0.0664 0.7822,0.0664 0.84857,0 1.227818,-0.21807 0.379249,-0.22281 0.379249,-0.62576 0,-0.29866 -0.222808,-0.57361 -0.218068,-0.2797 -0.587836,-0.4314 -0.213328,-0.0853 -0.720573,-0.11851 -0.241771,-0.0142 -0.374508,-0.14696 -0.127997,-0.13748 -0.127997,-0.33659 0,-0.20858 0.142219,-0.3508 0.142218,-0.14222 0.360286,-0.14222 0.483542,0 0.516727,-0.005 0.189624,-0.019 0.379248,-0.12326 0.189625,-0.10429 0.3034,-0.28443 0.118515,-0.18489 0.118515,-0.37925 0,-0.30814 -0.274956,-0.53095 -0.270214,-0.22755 -0.815385,-0.22755 -0.70161,0 -1.071377,0.40769 -0.109035,0.11852 -0.175403,0.1517 -0.09955,0.0521 -0.222809,0.0521 -0.199105,0 -0.341324,-0.14222 -0.142218,-0.14222 -0.142218,-0.3508 0,-0.32711 0.436136,-0.63525 0.635242,-0.45035 1.588105,-0.45035 0.900716,0 1.445886,0.51198 0.54517,0.51199 0.54517,1.23256 0,0.37451 -0.161181,0.70161 -0.161181,0.32236 -0.483542,0.59732 z"
         id="path3" /><path
         style="font-weight:bold;font-family:'Courier New';-inkscape-font-specification:'Courier New Bold'"
         d="m 10.479391,279.82537 v 2.75429 q 0,0.90072 -0.6494635,1.53122 -0.644723,0.6305 -1.5549202,0.6305 -0.4503579,0 -0.8485692,-0.15644 -0.3934706,-0.16118 -0.7110915,-0.46932 -0.3128803,-0.30814 -0.4882829,-0.63998 -0.1754026,-0.33659 -0.1754026,-0.89598 v -2.75429 q -0.3081396,0 -0.4550985,-0.13748 -0.146959,-0.13748 -0.146959,-0.35081 0,-0.21806 0.146959,-0.3508 0.1469589,-0.13274 0.5025046,-0.13274 l 1.2752242,-0.005 q 0.3508052,0 0.4977641,0.13748 0.1516995,0.13274 0.1516995,0.3508 0,0.21807 -0.1516995,0.35555 -0.1469589,0.13274 -0.4977641,0.13274 H 7.0234862 v 2.83962 q 0,0.43614 0.3602864,0.77272 0.365027,0.33184 0.8770129,0.33184 0.341324,0 0.6399824,-0.16118 0.2986584,-0.16118 0.4882829,-0.46932 0.1185152,-0.19436 0.1185152,-0.47406 v -2.83962 H 9.1567609 q -0.3508052,0 -0.5025047,-0.13274 -0.146959,-0.13748 -0.146959,-0.35555 0,-0.21806 0.146959,-0.3508 0.1516995,-0.13748 0.5025047,-0.13748 l 1.2752241,0.005 q 0.350805,0 0.497764,0.13274 0.1517,0.13274 0.1517,0.3508 0,0.21333 -0.146959,0.35081 -0.146959,0.13748 -0.455099,0.13748 z m 4.091147,0 v 3.80197 h 0.981306 q 0.350805,0 0.497764,0.13747 0.1517,0.13274 0.1517,0.35081 0,0.21333 -0.1517,0.3508 -0.146959,0.13274 -0.497764,0.13274 h -2.934438 q -0.350805,0 -0.502504,-0.13274 -0.146959,-0.13747 -0.146959,-0.35554 0,-0.21333 0.146959,-0.34607 0.151699,-0.13747 0.502504,-0.13747 h 0.981307 v -3.80197 h -0.981307 q -0.350805,0 -0.502504,-0.13274 -0.146959,-0.13748 -0.146959,-0.35555 0,-0.21806 0.146959,-0.3508 0.151699,-0.13748 0.502504,-0.13748 l 2.934438,0.005 q 0.350805,0 0.497764,0.13274 0.1517,0.13274 0.1517,0.3508 0,0.21807 -0.1517,0.35555 -0.146959,0.13274 -0.497764,0.13274 z m 7.343205,-1.24678 -3.114581,6.7127 q -0.118515,0.25125 -0.213327,0.3271 -0.123256,0.0996 -0.298659,0.0996 -0.199105,0 -0.346064,-0.14222 -0.142219,-0.14222 -0.142219,-0.32236 0,-0.128 0.113775,-0.37451 l 3.124062,-6.70797 q 0.118515,-0.25125 0.208587,-0.3271 0.127997,-0.0996 0.298658,-0.0996 0.199106,0 0.341324,0.14222 0.142219,0.13747 0.142219,0.31762 0,0.12799 -0.113775,0.37451 z m 6.044278,1.24678 v 2.75429 q 0,0.90072 -0.649463,1.53122 -0.644723,0.6305 -1.554921,0.6305 -0.450358,0 -0.848569,-0.15644 -0.39347,-0.16118 -0.711091,-0.46932 -0.312881,-0.30814 -0.488283,-0.63998 -0.175403,-0.33659 -0.175403,-0.89598 v -2.75429 q -0.308139,0 -0.455098,-0.13748 -0.146959,-0.13748 -0.146959,-0.35081 0,-0.21806 0.146959,-0.3508 0.146959,-0.13274 0.502504,-0.13274 l 1.275224,-0.005 q 0.350806,0 0.497765,0.13748 0.151699,0.13274 0.151699,0.3508 0,0.21807 -0.151699,0.35555 -0.146959,0.13274 -0.497765,0.13274 h -0.350805 v 2.83962 q 0,0.43614 0.360287,0.77272 0.365027,0.33184 0.877013,0.33184 0.341324,0 0.639982,-0.16118 0.298658,-0.16118 0.488283,-0.46932 0.118515,-0.19436 0.118515,-0.47406 v -2.83962 h -0.350805 q -0.350805,0 -0.502505,-0.13274 -0.146959,-0.13748 -0.146959,-0.35555 0,-0.21806 0.146959,-0.3508 0.1517,-0.13748 0.502505,-0.13748 l 1.275224,0.005 q 0.350805,0 0.497764,0.13274 0.1517,0.13274 0.1517,0.3508 0,0.21333 -0.146959,0.35081 -0.146959,0.13748 -0.455099,0.13748 z m 4.242846,1.84409 1.621289,1.95788 q 0.289177,0.005 0.431396,0.14221 0.146959,0.13274 0.146959,0.34607 0,0.21333 -0.1517,0.3508 -0.146959,0.13274 -0.497764,0.13274 h -1.095081 q -0.346065,0 -0.497764,-0.13274 -0.146959,-0.13747 -0.146959,-0.35554 0,-0.20385 0.137478,-0.33659 0.137477,-0.13747 0.412433,-0.14695 l -0.976566,-1.20412 -0.986047,1.20412 q 0.270215,0.009 0.407693,0.14695 0.137477,0.13748 0.137477,0.34133 0,0.21333 -0.151699,0.3508 -0.146959,0.13274 -0.497764,0.13274 h -1.090341 q -0.350805,0 -0.502504,-0.13274 -0.146959,-0.13747 -0.146959,-0.35554 0,-0.20859 0.146959,-0.34607 0.146959,-0.13747 0.431395,-0.13747 l 1.611808,-1.96736 -1.535958,-1.83461 q -0.284437,-0.009 -0.426655,-0.14222 -0.137478,-0.13748 -0.137478,-0.34607 0,-0.21806 0.146959,-0.3508 0.1517,-0.13748 0.502505,-0.13748 l 0.895975,0.005 q 0.350805,0 0.497764,0.13274 0.1517,0.13274 0.1517,0.3508 0,0.16118 -0.09481,0.29392 -0.06163,0.0806 -0.274956,0.19437 l 0.905457,1.0856 0.886494,-1.0856 q -0.213328,-0.11378 -0.274955,-0.19437 -0.09481,-0.13274 -0.09481,-0.29392 0,-0.21332 0.146959,-0.3508 0.1517,-0.13748 0.502505,-0.13748 l 0.891235,0.005 q 0.350805,0 0.497764,0.13274 0.151699,0.13274 0.151699,0.3508 0,0.20859 -0.146959,0.34607 -0.142218,0.13748 -0.417173,0.14222 z m 8.841239,1.95788 v -3.80197 q -0.30814,-0.005 -0.455099,-0.13748 -0.146959,-0.13748 -0.146959,-0.35081 0,-0.21806 0.146959,-0.3508 0.151699,-0.13748 0.502505,-0.13748 l 2.033721,0.005 q 0.474061,0 0.924419,0.1754 0.455099,0.17541 0.730054,0.44562 0.208587,0.20385 0.431396,0.55939 0.227549,0.35555 0.341324,0.70635 0.113775,0.35081 0.113775,0.85805 v 0.46458 q 0,0.61628 -0.208587,1.09509 -0.208587,0.47406 -0.549911,0.77746 -0.336583,0.29865 -0.635242,0.44087 -0.474061,0.22281 -1.227818,0.22281 h -1.953131 q -0.350806,0 -0.502505,-0.13274 -0.146959,-0.13747 -0.146959,-0.35554 0,-0.21333 0.146959,-0.35081 0.151699,-0.13747 0.455099,-0.13273 z m 0.971825,0 h 1.033453 q 0.578354,0 0.872272,-0.16593 0.383989,-0.21806 0.578354,-0.55465 0.194365,-0.33658 0.194365,-0.87227 v -0.45984 q 0,-0.45984 -0.175402,-0.8059 -0.274956,-0.54043 -0.62102,-0.73954 -0.341324,-0.20384 -0.858051,-0.20384 h -1.023971 z m 9.466998,-0.68739 h -3.986853 q 0.1517,0.37925 0.535689,0.61154 0.38873,0.23229 1.047675,0.23229 0.54043,0 1.436405,-0.23229 0.369767,-0.0948 0.511986,-0.0948 0.194365,0 0.327102,0.13748 0.132737,0.13748 0.132737,0.34607 0,0.18962 -0.142218,0.32236 -0.189625,0.1754 -0.924419,0.33658 -0.734795,0.15644 -1.412702,0.15644 -1.16619,0 -1.867801,-0.65894 -0.696869,-0.65895 -0.696869,-1.62129 0,-1.02397 0.753757,-1.66396 0.758497,-0.64472 1.744544,-0.64472 0.592577,0 1.0856,0.20859 0.497764,0.20858 0.739535,0.45036 0.341324,0.3508 0.564133,0.86753 0.151699,0.36028 0.151699,0.83434 z m -1.076118,-0.97183 q -0.222809,-0.41717 -0.583095,-0.62102 -0.360287,-0.20858 -0.858051,-0.20858 -0.493023,0 -0.85331,0.20858 -0.360286,0.20385 -0.587835,0.62102 z m 5.51333,-0.53569 q -0.237031,-0.14696 -0.497765,-0.21806 -0.260733,-0.0758 -0.54517,-0.0758 -0.564132,0 -0.895975,0.18488 -0.146959,0.0806 -0.146959,0.1754 0,0.10904 0.199106,0.21333 0.151699,0.0759 0.677907,0.14696 0.967084,0.13274 1.346333,0.26547 0.497764,0.17541 0.767979,0.52147 0.270215,0.34606 0.270215,0.73005 0,0.52147 -0.459839,0.87228 -0.658945,0.50724 -1.711361,0.50724 -0.421914,0 -0.7822,-0.0759 -0.355546,-0.0711 -0.654205,-0.21333 -0.07111,0.0616 -0.151699,0.0948 -0.08059,0.0332 -0.165921,0.0332 -0.22755,0 -0.365027,-0.14696 -0.132737,-0.1517 -0.132737,-0.5025 v -0.32711 q 0,-0.3508 0.132737,-0.49776 0.137477,-0.1517 0.355545,-0.1517 0.175403,0 0.293918,0.0996 0.118515,0.0948 0.184884,0.33185 0.222809,0.18962 0.535689,0.28917 0.31288,0.0948 0.720573,0.0948 0.668426,0 1.038193,-0.20859 0.175403,-0.10429 0.175403,-0.21807 0,-0.18962 -0.251252,-0.31288 -0.251253,-0.12325 -1.038194,-0.20859 -1.170931,-0.12325 -1.564401,-0.47406 -0.393471,-0.34606 -0.393471,-0.85331 0,-0.52146 0.440877,-0.86753 0.597317,-0.47406 1.564401,-0.47406 0.336583,0 0.644723,0.0664 0.31288,0.0616 0.597317,0.19436 0.09007,-0.0664 0.165921,-0.0995 0.08059,-0.0332 0.146959,-0.0332 0.199106,0 0.331843,0.1517 0.132737,0.14696 0.132737,0.49776 v 0.23703 q 0,0.31762 -0.07585,0.4314 -0.151699,0.21806 -0.412433,0.21806 -0.175402,0 -0.308139,-0.10903 -0.132738,-0.10903 -0.170662,-0.28918 z m 5.124599,-2.98184 v 1.02871 h -1.156709 v -1.02871 z m 0.132737,1.8441 v 3.33265 h 1.16619 q 0.350806,0 0.497765,0.13747 0.151699,0.13274 0.151699,0.35081 0,0.21333 -0.151699,0.3508 -0.146959,0.13274 -0.497765,0.13274 h -3.304205 q -0.350805,0 -0.502505,-0.13274 -0.146958,-0.13747 -0.146958,-0.35554 0,-0.21333 0.146958,-0.34607 0.1517,-0.13747 0.502505,-0.13747 h 1.16619 v -2.36083 h -0.7822 q -0.346065,0 -0.497765,-0.13274 -0.151699,-0.13747 -0.151699,-0.35554 0,-0.21333 0.146959,-0.34607 0.151699,-0.13747 0.502505,-0.13747 z m 6.414046,0.28917 v -0.28917 h 1.137747 q 0.350805,0 0.497764,0.13747 0.151699,0.13274 0.151699,0.35081 0,0.21333 -0.151699,0.3508 -0.146959,0.13274 -0.497764,0.13274 h -0.165922 v 3.5365 q 0,0.51198 -0.218068,0.89123 -0.213327,0.38399 -0.658945,0.65895 -0.445617,0.27495 -1.005009,0.27495 h -1.099822 q -0.350805,0 -0.502504,-0.13748 -0.146959,-0.13273 -0.146959,-0.34606 0,-0.21807 0.146959,-0.35555 0.151699,-0.13273 0.502504,-0.13273 h 1.071378 q 0.445618,0 0.692129,-0.24177 0.246512,-0.24178 0.246512,-0.61154 v -0.47406 q -0.322361,0.20858 -0.658945,0.31288 -0.331842,0.10429 -0.682648,0.10429 -0.990787,0 -1.659213,-0.65894 -0.668426,-0.66369 -0.668426,-1.63552 0,-0.97656 0.668426,-1.63551 0.668426,-0.66368 1.659213,-0.66368 0.369768,0 0.701611,0.10903 0.336583,0.1043 0.639982,0.32236 z m -0.0047,1.86306 q 0,-0.53568 -0.398211,-0.92916 -0.39347,-0.39347 -0.948122,-0.39347 -0.554651,0 -0.952863,0.39347 -0.39347,0.39348 -0.39347,0.92916 0,0.54043 0.39347,0.9339 0.398212,0.38873 0.952863,0.38873 0.554652,0 0.948122,-0.38873 0.398211,-0.39347 0.398211,-0.9339 z m 3.778267,-2.15223 v 0.3271 q 0.265474,-0.22755 0.583095,-0.34132 0.322361,-0.11378 0.69687,-0.11378 0.862791,0 1.365295,0.53569 0.398212,0.42665 0.398212,1.11878 v 1.80618 q 0.308139,0 0.455098,0.13747 0.146959,0.13274 0.146959,0.35081 0,0.21333 -0.151699,0.3508 -0.146959,0.13274 -0.497764,0.13274 h -0.877013 q -0.350806,0 -0.502505,-0.13274 -0.146959,-0.13747 -0.146959,-0.35554 0,-0.21333 0.146959,-0.34607 0.146959,-0.13747 0.455099,-0.13747 v -1.83462 q 0,-0.31762 -0.170662,-0.46458 -0.222809,-0.18962 -0.668427,-0.18962 -0.336583,0 -0.592576,0.13273 -0.251252,0.128 -0.639982,0.54991 v 1.80618 q 0.374508,0 0.483542,0.0711 0.23229,0.14221 0.23229,0.41717 0,0.21333 -0.1517,0.3508 -0.146958,0.13274 -0.497764,0.13274 h -1.104562 q -0.350805,0 -0.502505,-0.13274 -0.146958,-0.13747 -0.146958,-0.35554 0,-0.26548 0.227549,-0.41243 0.113775,-0.0711 0.488283,-0.0711 v -2.36083 q -0.30814,0 -0.455099,-0.13748 -0.146959,-0.13747 -0.146959,-0.3508 0,-0.21333 0.146959,-0.34607 0.1517,-0.13747 0.502505,-0.13747 z"
         id="path4" /></g></g><g
     inkscape:groupmode="layer"
     id="layer4"
     inkscape:label="Layer 4"><g
       id="g1"
       transform="translate(0,-5.291668)"><g
         id="g35"
         transform="matrix(0.44761493,0,0,-0.44761493,13.461237,48.140106)"><path
           d="M 0,0 -2.533,3.664 V 0 h -1.809 v 7.915 h 1.809 V 4.478 l 2.42,3.437 H 1.945 L -0.724,4.059 2.058,0 Z"
           style="fill:#1e1f1d;fill-opacity:1;fill-rule:nonzero;stroke:none"
           id="path37" /></g><g
         id="g47"
         transform="matrix(0.44761493,0,0,-0.44761493,17.803863,46.36867)"><path
           d="m 0,0 c 0,1.413 -1.018,2.352 -2.306,2.352 -1.289,0 -2.307,-0.939 -2.307,-2.352 0,-1.414 1.018,-2.352 2.307,-2.352 C -1.018,-2.352 0,-1.414 0,0 m -6.422,0 c 0,2.329 1.843,4.116 4.116,4.116 2.272,0 4.115,-1.787 4.115,-4.116 0,-2.329 -1.843,-4.116 -4.115,-4.116 -2.273,0 -4.116,1.787 -4.116,4.116"
           style="fill:#1e1f1d;fill-opacity:1;fill-rule:nonzero;stroke:none"
           id="path49" /></g><g
         id="g51"
         transform="matrix(0.44761493,0,0,-0.44761493,23.190729,48.140106)"><path
           d="M 0,0 H -1.809 V 4.602 L -3.856,1.244 H -4.059 L -6.106,4.602 V 0 h -1.809 v 7.915 h 1.809 l 2.148,-3.517 2.149,3.517 H 0 Z"
           style="fill:#1e1f1d;fill-opacity:1;fill-rule:nonzero;stroke:none"
           id="path53" /></g><g
         id="g55"
         transform="matrix(0.44761493,0,0,-0.44761493,27.094469,48.140106)"><path
           d="M 0,0 H -1.809 V 6.173 H -4.184 V 0 H -5.993 V 7.915 H 0 Z"
           style="fill:#1e1f1d;fill-opacity:1;fill-rule:nonzero;stroke:none"
           id="path57" /></g><g
         id="g59"
         transform="matrix(0.44761493,0,0,-0.44761493,30.084626,46.925548)"><path
           d="m 0,0 c 0,0.577 -0.407,1.018 -0.961,1.018 h -1.187 v -2.036 h 1.187 C -0.407,-1.018 0,-0.576 0,0 m 1.809,0 c 0,-1.503 -1.21,-2.713 -2.77,-2.713 h -2.997 v 7.914 h 1.81 V 2.714 h 1.187 c 1.56,0 2.77,-1.21 2.77,-2.714"
           style="fill:#1e1f1d;fill-opacity:1;fill-rule:nonzero;stroke:none"
           id="path61" /></g><g
         id="g63"
         transform="matrix(0.44761493,0,0,-0.44761493,35.966376,46.36867)"><path
           d="m 0,0 c 0,1.413 -1.018,2.352 -2.307,2.352 -1.289,0 -2.306,-0.894 -2.306,-2.352 0,-1.414 1.017,-2.352 2.306,-2.352 C -1.018,-2.352 0,-1.414 0,0 m 1.809,0 c 0,-2.307 -1.843,-4.116 -4.116,-4.116 -2.024,0 -3.663,1.413 -4.002,3.358 H -7.35 v -3.2 H -9.159 V 3.957 H -7.35 V 0.983 h 1.086 c 0.418,1.832 2.013,3.133 3.957,3.133 2.273,0 4.116,-1.787 4.116,-4.116"
           style="fill:#1e1f1d;fill-opacity:1;fill-rule:nonzero;stroke:none"
           id="path65" /></g><g
         id="g67"
         transform="matrix(0.44761493,0,0,-0.44761493,40.173016,45.3768)"><path
           d="M 0,0 H -2.035 V -6.173 H -3.844 V 0 H -5.879 V 1.741 H 0 Z"
           style="fill:#1e1f1d;fill-opacity:1;fill-rule:nonzero;stroke:none"
           id="path69" /></g><g
         id="g71"
         transform="matrix(0.44761493,0,0,-0.44761493,43.34392,47.360719)"><path
           d="m 0,0 v -1.741 h -4.975 v 7.914 h 4.918 V 4.432 H -3.166 V 3.121 h 2.827 V 1.402 H -3.166 V 0 Z"
           style="fill:#1e1f1d;fill-opacity:1;fill-rule:nonzero;stroke:none"
           id="path73" /></g><g
         id="g75"
         transform="matrix(0.44761493,0,0,-0.44761493,46.224322,45.811971)"><path
           d="m 0,0 c 0,0.577 -0.407,1.018 -0.961,1.018 h -1.187 v -2.036 h 1.187 C -0.407,-1.018 0,-0.577 0,0 m 1.809,0 c 0,-1.504 -1.21,-2.714 -2.77,-2.714 h -1.187 v -2.487 h -1.81 v 7.914 h 2.997 c 1.56,0 2.77,-1.209 2.77,-2.713"
           style="fill:#1e1f1d;fill-opacity:1;fill-rule:nonzero;stroke:none"
           id="path77" /></g><g
         id="g79"
         transform="matrix(0.44761493,0,0,-0.44761493,50.739593,44.597413)"><path
           d="m 0,0 v -7.915 h -1.809 v 3.144 H -4.297 V -7.915 H -6.106 V 0 h 1.809 v -3.03 h 2.488 V 0 Z"
           style="fill:#1e1f1d;fill-opacity:1;fill-rule:nonzero;stroke:none"
           id="path81" /></g><g
         id="g83"
         transform="matrix(0.44761493,0,0,-0.44761493,53.796624,46.824118)"><path
           d="M 0,0 -0.927,2.906 -1.854,0 Z M 0.542,-1.696 H -2.397 L -2.793,-2.94 h -1.978 l 2.69,7.915 H 0.226 L 2.917,-2.94 H 0.938 Z"
           style="fill:#1e1f1d;fill-opacity:1;fill-rule:nonzero;stroke:none"
           id="path85" /></g><g
         id="g87"
         transform="matrix(0.44761493,0,0,-0.44761493,57.857073,46.267464)"><path
           d="M 0,0 V 2.035 H -1.356 C -1.854,2.035 -2.261,1.594 -2.261,1.018 -2.261,0.441 -1.854,0 -1.356,0 Z M 1.81,-4.184 H 0 v 2.601 h -0.576 l -1.685,-2.601 h -2.035 l 1.855,2.827 c -0.962,0.407 -1.629,1.346 -1.629,2.375 0,1.503 1.21,2.713 2.714,2.713 H 1.81 Z"
           style="fill:#1e1f1d;fill-opacity:1;fill-rule:nonzero;stroke:none"
           id="path89" /></g><g
         id="g91"
         transform="matrix(0.44761493,0,0,-0.44761493,13.350005,52.89776)"><path
           d="M 0,0 -0.927,2.906 -1.854,0 Z M 0.542,-1.696 H -2.397 L -2.793,-2.94 h -1.978 l 2.69,7.915 H 0.226 L 2.917,-2.94 H 0.938 Z"
           style="fill:#1e1f1d;fill-opacity:1;fill-rule:nonzero;stroke:none"
           id="path93" /></g><g
         id="g95"
         transform="matrix(0.44761493,0,0,-0.44761493,17.520388,54.213703)"><path
           d="M 0,0 -2.533,3.664 V 0 h -1.809 v 7.915 h 1.809 V 4.478 l 2.42,3.437 H 1.945 L -0.724,4.059 2.058,0 Z"
           style="fill:#1e1f1d;fill-opacity:1;fill-rule:nonzero;stroke:none"
           id="path97" /></g><g
         id="g99"
         transform="matrix(0.44761493,0,0,-0.44761493,21.344765,52.89776)"><path
           d="M 0,0 -0.927,2.906 -1.854,0 Z M 0.542,-1.696 H -2.397 L -2.793,-2.94 h -1.978 l 2.69,7.915 H 0.226 L 2.917,-2.94 H 0.938 Z"
           style="fill:#1e1f1d;fill-opacity:1;fill-rule:nonzero;stroke:none"
           id="path101" /></g><g
         id="g103"
         transform="matrix(0.44761493,0,0,-0.44761493,25.658117,53.434316)"><path
           d="M 0,0 V 4.478 H -1.685 V 2.601 C -1.685,1.3 -1.911,0.509 -2.193,0 Z M 2.657,0 V -3.256 H 0.848 v 1.515 H -3.109 V -3.256 H -4.918 V 0 h 0.802 c 0.362,0.52 0.622,1.278 0.622,2.623 v 3.55 H 1.809 V 0 Z"
           style="fill:#1e1f1d;fill-opacity:1;fill-rule:nonzero;stroke:none"
           id="path105" /></g><g
         id="g107"
         transform="matrix(0.44761493,0,0,-0.44761493,30.11193,53.434316)"><path
           d="m 0,0 v -1.741 h -4.975 v 7.914 h 4.918 V 4.432 H -3.166 V 3.121 h 2.827 V 1.402 H -3.166 V 0 Z"
           style="fill:#1e1f1d;fill-opacity:1;fill-rule:nonzero;stroke:none"
           id="path109" /></g><g
         id="g111"
         transform="matrix(0.44761493,0,0,-0.44761493,34.763813,54.213703)"><path
           d="M 0,0 H -1.809 V 4.602 L -3.856,1.244 H -4.059 L -6.106,4.602 V 0 h -1.809 v 7.915 h 1.809 l 2.148,-3.517 2.149,3.517 H 0 Z"
           style="fill:#1e1f1d;fill-opacity:1;fill-rule:nonzero;stroke:none"
           id="path113" /></g><g
         id="g115"
         transform="matrix(0.44761493,0,0,-0.44761493,37.958978,52.290571)"><path
           d="M 0,0 -3.053,-4.296 H -4.41 v 7.914 h 1.809 V -0.678 L 0.453,3.618 H 1.809 V -4.296 H 0 Z"
           style="fill:#1e1f1d;fill-opacity:1;fill-rule:nonzero;stroke:none"
           id="path117" /></g><g
         id="g119"
         transform="matrix(0.44761493,0,0,-0.44761493,41.68873,52.341062)"><path
           d="M 0,0 V 2.035 H -1.356 C -1.854,2.035 -2.261,1.594 -2.261,1.018 -2.261,0.441 -1.854,0 -1.356,0 Z M 1.809,-4.184 H 0 v 2.601 h -0.577 l -1.684,-2.601 h -2.035 l 1.854,2.827 c -0.961,0.407 -1.628,1.346 -1.628,2.375 0,1.503 1.21,2.713 2.714,2.713 h 3.165 z"
           style="fill:#1e1f1d;fill-opacity:1;fill-rule:nonzero;stroke:none"
           id="path121" /></g></g><g
       id="g2"><g
         id="g123"
         transform="matrix(0.44761493,0,0,-0.44761493,22.461744,28.744324)"><path
           d="m 0,0 c -1.533,-1.095 -3.176,-1.938 -4.927,-2.529 -1.752,-0.592 -3.744,-0.887 -5.978,-0.887 -3.986,0 -7.095,1.258 -9.328,3.777 -2.234,2.518 -3.35,5.901 -3.35,10.15 v 10.051 h -6.044 v 7.817 h 6.044 v 8.606 h 9.985 v -8.606 h 8.737 v -7.817 h -8.737 V 10.511 c 0,-1.621 0.361,-2.891 1.084,-3.81 0.722,-0.92 1.849,-1.38 3.383,-1.38 0.963,0 1.882,0.164 2.759,0.493 0.875,0.328 1.883,0.842 3.022,1.543 z"
           style="fill:#1e1f1d;fill-opacity:1;fill-rule:nonzero;stroke:none"
           id="path125" /></g><g
         id="g127"
         transform="matrix(0.44761493,0,0,-0.44761493,33.652967,25.759673)"><path
           d="m 0,0 c 1.422,1.554 2.135,3.623 2.135,6.208 0,2.584 -0.713,4.652 -2.135,6.208 -1.424,1.554 -3.186,2.332 -5.289,2.332 -2.102,0 -3.865,-0.778 -5.288,-2.332 C -12,10.86 -12.711,8.792 -12.711,6.208 -12.711,3.623 -12,1.554 -10.577,0 c 1.423,-1.555 3.186,-2.333 5.288,-2.333 2.103,0 3.865,0.778 5.289,2.333 m -14.059,-8.113 c -2.737,1.357 -4.938,3.284 -6.602,5.78 -1.664,2.497 -2.496,5.343 -2.496,8.541 0,3.196 0.832,6.043 2.496,8.54 1.664,2.496 3.865,4.423 6.602,5.781 2.737,1.357 5.661,2.036 8.77,2.036 3.022,0 5.902,-0.679 8.639,-2.036 2.736,-1.358 4.96,-3.285 6.668,-5.781 1.708,-2.497 2.562,-5.344 2.562,-8.54 0,-3.198 -0.811,-6.044 -2.431,-8.541 C 8.528,-4.829 6.35,-6.756 3.613,-8.113 0.875,-9.47 -2.092,-10.15 -5.289,-10.15 c -3.109,0 -6.033,0.68 -8.77,2.037"
           style="fill:#1e1f1d;fill-opacity:1;fill-rule:nonzero;stroke:none"
           id="path129" /></g><g
         id="g131"
         transform="matrix(0.44761493,0,0,-0.44761493,54.006779,25.568631)"><path
           d="m 0,0 c 1.554,1.488 2.332,3.459 2.332,5.912 0,2.277 -0.657,4.161 -1.971,5.65 -1.314,1.488 -3.088,2.233 -5.321,2.233 -1.358,0 -2.792,-0.482 -4.303,-1.445 -1.511,-0.964 -2.967,-2.343 -4.368,-4.139 v -7.62 c 2.539,-1.883 4.948,-2.824 7.226,-2.824 2.715,0 4.85,0.744 6.405,2.233 m 5.551,20.003 c 2.189,-1.423 3.941,-3.383 5.255,-5.879 1.314,-2.497 1.971,-5.278 1.971,-8.343 0,-3.066 -0.713,-5.846 -2.135,-8.343 -1.424,-2.496 -3.394,-4.457 -5.913,-5.879 -2.518,-1.423 -5.353,-2.136 -8.506,-2.136 -3.679,0 -6.964,1.249 -9.854,3.745 v -9.328 h 5.978 v -7.818 h -21.876 v 7.818 h 6.11 v 29.627 h -6.11 v 7.817 h 15.898 v -5.978 c 1.751,2.19 3.678,3.876 5.78,5.059 2.103,1.182 4.205,1.773 6.307,1.773 2.54,0 4.904,-0.712 7.095,-2.135"
           style="fill:#1e1f1d;fill-opacity:1;fill-rule:nonzero;stroke:none"
           id="path133" /></g><g
         id="g135"
         transform="matrix(0.44761493,0,0,-0.44761493,70.174765,31.634753)"><path
           d="m 0,0 h -9 v 48.952 h -53.647 v 9 H 0 Z"
           style="fill:#d91842;fill-opacity:1;fill-rule:nonzero;stroke:none"
           id="path137" /></g></g></g></svg>
